<?xml version="1.0" standalone="no"?>
<!DOCTYPE svg PUBLIC "-//W3C//DTD SVG 20010904//EN"
 "http://www.w3.org/TR/2001/REC-SVG-20010904/DTD/svg10.dtd">
<svg version="1.0" xmlns="http://www.w3.org/2000/svg"
 width="200.000000pt" height="200.000000pt" viewBox="0 0 200.000000 200.000000"
 preserveAspectRatio="xMidYMid meet">

<g transform="translate(0.000000,200.000000) scale(0.100000,-0.100000)"
fill="#000000" stroke="none">
<path d="M430 1225 c-17 -21 -7 -29 18 -14 29 18 52 5 52 -31 0 -25 4 -31 18
-28 22 5 19 58 -5 75 -23 18 -68 16 -83 -2z"/>
<path d="M460 1164 c0 -30 -3 -35 -17 -30 -16 6 -16 6 0 -12 22 -24 24 -87 2
-78 -8 3 -15 1 -15 -5 0 -5 7 -12 15 -15 8 -4 15 -12 15 -20 0 -8 -7 -14 -15
-14 -8 0 -15 -4 -15 -10 0 -5 18 -10 40 -10 22 0 40 5 40 10 0 6 -7 10 -15 10
-21 0 -20 58 2 82 15 17 15 18 0 18 -14 0 -17 10 -17 55 0 30 -4 55 -10 55 -5
0 -10 -16 -10 -36z"/>
<path d="M386 1167 c-22 -16 -18 -50 7 -55 12 -3 17 3 17 22 0 14 5 26 11 26
5 0 7 5 4 10 -8 13 -18 13 -39 -3z"/>
<path d="M1107 1134 c-4 -4 -7 -38 -7 -76 0 -54 3 -70 16 -75 25 -9 34 16 32
87 -2 49 -7 66 -18 68 -9 1 -19 0 -23 -4z"/>
<path d="M1316 1124 c-9 -24 -7 -117 3 -133 5 -8 16 -11 25 -8 13 5 16 22 16
82 0 67 -2 75 -19 75 -10 0 -22 -7 -25 -16z"/>
<path d="M1767 1133 c-4 -3 -7 -16 -7 -28 0 -18 -5 -21 -30 -17 -24 3 -32 0
-42 -22 -8 -19 -9 -35 -2 -54 8 -24 15 -27 59 -29 29 -1 53 3 57 10 9 14 10
109 2 131 -6 16 -26 21 -37 9z m-9 -98 c-2 -14 -7 -26 -13 -26 -5 0 -11 12
-13 26 -2 18 1 25 13 25 12 0 15 -7 13 -25z"/>
<path d="M510 1121 c0 -5 7 -11 15 -15 18 -7 20 -32 3 -39 -7 -3 -3 -6 9 -6
28 -1 45 27 32 51 -10 18 -59 26 -59 9z"/>
<path d="M593 1075 c-2 -7 -3 -30 -1 -51 2 -31 7 -39 23 -39 15 0 21 8 23 33
4 41 20 42 24 0 4 -41 38 -54 38 -15 0 34 10 58 21 51 5 -3 9 -21 9 -40 0 -27
4 -34 20 -34 24 0 37 42 24 79 -9 25 -12 26 -93 27 -58 1 -84 -3 -88 -11z"/>
<path d="M808 1064 c-8 -17 -8 -34 -2 -52 8 -24 15 -27 62 -29 l52 -2 0 53 0
53 -50 1 c-45 1 -52 -2 -62 -24z m70 -29 c-2 -14 -7 -26 -13 -26 -5 0 -11 12
-13 26 -2 18 1 25 13 25 12 0 15 -7 13 -25z"/>
<path d="M954 1075 c-3 -6 -4 -41 -2 -76 3 -56 5 -64 23 -64 13 0 21 8 23 23
3 17 10 22 33 22 38 0 56 38 36 78 -11 23 -19 27 -60 28 -31 1 -50 -3 -53 -11z
m71 -25 c9 -14 -4 -52 -16 -45 -12 8 -12 55 0 55 6 0 13 -5 16 -10z"/>
<path d="M1186 1068 c-21 -29 -20 -51 2 -71 22 -20 73 -22 90 -5 20 20 14 28
-17 22 -16 -4 -32 -1 -35 5 -5 7 2 11 17 11 34 0 54 25 37 45 -19 23 -76 19
-94 -7z m62 -10 c-6 -18 -28 -21 -28 -4 0 9 7 16 16 16 9 0 14 -5 12 -12z"/>
<path d="M1401 1077 c-15 -15 -14 -72 2 -86 8 -6 34 -10 58 -8 l44 2 0 50 0
50 -46 2 c-25 1 -51 -3 -58 -10z m59 -42 c0 -14 -4 -25 -10 -25 -5 0 -10 11
-10 25 0 14 5 25 10 25 6 0 10 -11 10 -25z"/>
<path d="M1540 1034 c0 -47 3 -54 19 -54 15 0 21 8 23 35 4 48 22 49 26 3 3
-30 7 -38 22 -38 24 0 37 42 24 79 -8 23 -15 26 -62 28 l-52 2 0 -55z"/>
<path d="M371 1062 c-12 -23 4 -52 30 -52 17 0 18 3 7 20 -11 16 -9 22 7 34
19 15 19 15 -7 16 -16 0 -31 -7 -37 -18z"/>
</g>
</svg>
